#!OML:ASF I:\Actors\actors\Patient Classification 1\Patient 1\Session 1\Subject1.ASF
:FULLY-SPECIFIED
:DEGREES
286
root -0.489763 17.6052 7.45596 9.11457 1.01811 -9.461
lowerback 9.9795 -1.18822 -1.19593
upperback -5.90535 -1.92453 -1.21114
thorax -12.0407 -0.881146 -0.256548
lowerneck -15.7931 -4.29245 -1.44687
upperneck 27.407 -9.03414 10.5639
head 12.2879 -2.90094 2.83428
rclavicle 2.28105e-014 2.38542e-014
rhumerus -7.54544 37.5372 -72.8767
rradius 117.79
rwrist -17.5469
rhand 30.6882 -64.721
rfingers 7.12502
rthumb 54.3246 -83.3371
lclavicle 2.28105e-014 2.38542e-014
lhumerus -2.46692 -21.2219 78.0567
lradius 92.5369
lwrist 39.9376
lhand -37.723 -17.428
lfingers 7.12502
lthumb -10.7721 12.2758
rfemur -9.8824 17.6223 24.7325
rtibia 8.25721
rfoot -11.342 -21.4073
rtoes -0.451957
lfemur 0.502869 -45.6405 -8.2889
ltibia -3.88247
lfoot -19.1883 53.4738
ltoes 12.6243
287
root -0.488397 17.6027 7.47837 9.02723 1.89759 -9.5561
lowerback 9.52706 -1.61342 -1.52959
upperback -5.51251 -2.46945 -0.664094
thorax -11.278 -1.09705 0.613232
lowerneck -15.7974 -4.24476 -1.64095
upperneck 26.6534 -8.68848 10.17
head 11.9435 -2.844 2.75351
rclavicle 1.43622e-014 -2.22639e-014
rhumerus -8.45005 38.8588 -72.3832
rradius 118.274
rwrist -14.2022
rhand 28.3634 -66.5555
rfingers 7.12502
rthumb 52.2297 -86.5237
lclavicle 1.43622e-014 -2.22639e-014
lhumerus -2.48603 -19.9089 78.1113
lradius 92.6757
lwrist 40.0295
lhand -37.7191 -17.3677
lfingers 7.12502
lthumb -10.7684 12.3363
rfemur -9.54791 17.3331 24.9297
rtibia 8.06835
rfoot -11.5879 -21.913
rtoes -0.0230826
lfemur 0.325169 -45.8987 -8.03511
ltibia -3.88769
lfoot -17.9854 53.1058
ltoes 11.3623
288
root -0.488426 17.6022 7.49758 8.91739 2.527 -9.67913
lowerback 9.58946 -1.88722 -1.3503
upperback -5.48222 -2.79844 -0.517398
thorax -11.2761 -1.26133 0.73518
lowerneck -15.4968 -4.34384 -1.9227
upperneck 26.1965 -8.74005 10.3307
head 11.7285 -2.90457 2.84793
rclavicle 8.4235e-015 9.54166e-015
rhumerus -10.7157 39.7458 -74.0414
rradius 117.772
rwrist -10.1874
rhand 26.2131 -68.1103
rfingers 7.12502
rthumb 50.2725 -89.1887
lclavicle 8.4235e-015 9.54166e-015
lhumerus -3.07181 -19.378 78.0027
lradius 92.8531
lwrist 40.1272
lhand -37.7467 -17.3604
lfingers 7.12502
lthumb -10.7949 12.3422
rfemur -9.23769 17.2184 25.1591
rtibia 7.91341
rfoot -11.7818 -22.3688
rtoes 0.25734
lfemur 0.312187 -46.1396 -7.84922
ltibia -3.934
lfoot -17.436 52.8533
ltoes 10.7335
289
root -0.489068 17.6048 7.51082 8.81932 2.93626 -9.7062
lowerback 10.0223 -1.97945 -0.941915
upperback -5.69349 -2.89097 -0.665336
thorax -11.8052 -1.33643 0.38607
lowerneck -15.2608 -4.56572 -2.17646
upperneck 26.2652 -9.12834 10.7594
head 11.7771 -3.05975 2.99753
rclavicle -2.34317e-014 1.43125e-014
rhumerus -13.3495 40.5757 -76.4874
rradius 117.066
rwrist -6.44187
rhand 24.1207 -69.631
rfingers 7.12502
rthumb 48.3526 -268.322
lclavicle -2.34317e-014 1.43125e-014
lhumerus -3.82493 -19.527 77.8856
lradius 92.8919
lwrist 40.1332
lhand -37.9146 -17.4288
lfingers 7.12502
lthumb -10.9569 12.2652
rfemur -9.02611 17.1589 25.2607
rtibia 7.84518
rfoot -11.8819 -22.7061
rtoes 0.250032
lfemur 0.236246 -46.0472 -7.74929
ltibia -3.89912
lfoot -16.919 52.4538
ltoes 10.1612
290
root -0.486742 17.6058 7.52569 8.74715 3.01536 -9.56734
lowerback 10.1018 -1.94063 -0.811711
upperback -5.69956 -2.83599 -0.811899
thorax -11.8757 -1.32695 0.14632
lowerneck -14.9544 -4.74359 -1.80643
upperneck 25.8647 -9.34089 10.4571
head 11.5407 -3.18236 2.78423
rclavicle -6.90777e-015 2.38542e-014
rhumerus -15.0157 41.2756 -78.7882
rradius 115.885
rwrist -2.47131
rhand 22.9575 -71.1971
rfingers 7.12502
rthumb 47.2796 -266.261
lclavicle -6.90777e-015 2.38542e-014
lhumerus -4.07042 -19.6018 77.8538
lradius 92.7379
lwrist 40.0866
lhand -38.0058 -17.3176
lfingers 7.12502
lthumb -11.0449 12.3718
rfemur -8.84637 17.1111 25.14
rtibia 7.78659
rfoot -11.9303 -22.7631
rtoes 0.206903
lfemur 0.362368 -45.9892 -8.04918
ltibia -3.83874
lfoot -16.6983 52.329
ltoes 9.81295
291
root -0.484076 17.6059 7.53469 8.74649 2.74855 -9.48741
lowerback 10.0214 -1.78836 -0.760242
upperback -5.63295 -2.62898 -0.897852
thorax -11.7584 -1.23795 -0.0213297
lowerneck -14.8772 -4.98107 -1.64281
upperneck 25.5824 -9.61918 10.2153
head 11.4147 -3.33548 2.62002
rclavicle 6.95746e-016 1.43125e-014
rhumerus -16.158 41.7762 -81.2526
rradius 114.291
rwrist 1.97725
rhand 21.8369 -71.982
rfingers 7.12502
rthumb 46.2423 -265.025
lclavicle 6.95746e-016 1.43125e-014
lhumerus -4.02847 -19.5952 77.8739
lradius 92.5053
lwrist 40.0789
lhand -38.1798 -17.2294
lfingers 7.12502
lthumb -11.2127 12.451
rfemur -8.84647 17.1881 25.0474
rtibia 7.84748
rfoot -11.8867 -22.6122
rtoes -0.0786799
lfemur 0.534969 -45.7646 -8.29793
ltibia -3.83466
lfoot -16.7354 52.3433
ltoes 9.80359
292
root -0.482694 17.6084 7.52811 8.8371 2.20879 -9.6465
lowerback 9.90802 -1.58136 -0.62548
upperback -5.51761 -2.32239 -0.871412
thorax -11.5625 -1.10275 -0.134442
lowerneck -14.8235 -5.17725 -1.55894
upperneck 25.1467 -9.82654 10.0758
head 11.2399 -3.45796 2.51671
rclavicle 8.00108e-015 -9.54166e-015
rhumerus -16.4878 42.0787 -83.6196
rradius 112.179
rwrist 6.84506
rhand 20.2048 -71.9043
rfingers 7.12502
rthumb 44.7258 -264.489
lclavicle 8.00108e-015 -9.54166e-015
lhumerus -3.78245 -19.3909 77.8892
lradius 92.2983
lwrist 40.1392
lhand -38.3966 -17.4722
lfingers 7.12502
lthumb -11.4218 12.1967
rfemur -9.16657 17.3754 25.1741
rtibia 8.15795
rfoot -11.7774 -22.2751
rtoes -0.643138
lfemur 0.459246 -45.0969 -8.03954
ltibia -3.82599
lfoot -16.8866 52.1948
ltoes 10.1597
293
root -0.47677 17.6083 7.52036 8.94595 1.38415 -9.7432
lowerback 9.43419 -1.30573 -0.697003
upperback -5.14649 -1.93659 -0.765851
thorax -10.8503 -0.913249 -0.0716844
lowerneck -14.968 -5.29834 -1.62761
upperneck 24.5605 -9.911 10.0854
head 11.0575 -3.52017 2.50683
rclavicle -5.26779e-015 -1.59028e-014
rhumerus -15.4968 42.2918 -85.3203
rradius 109.486
rwrist 12.0116
rhand 17.7446 -70.7266
rfingers 7.12502
rthumb 42.4286 -264.829
lclavicle -5.26779e-015 -1.59028e-014
lhumerus -3.16852 -18.8401 77.9949
lradius 92.1805
lwrist 40.1639
lhand -38.4231 -17.7043
lfingers 7.12502
lthumb -11.4473 11.9632
rfemur -9.53579 17.5629 25.1813
rtibia 8.48852
rfoot -11.6586 -21.6443
rtoes -0.880437
lfemur 0.642279 -44.7962 -8.08762
ltibia -3.82049
lfoot -18.0186 52.4907
ltoes 11.4635
294
root -0.466581 17.6044 7.51795 9.04445 0.321762 -9.60424
lowerback 9.65964 -0.74844 -0.37796
upperback -5.28644 -1.17877 -1.10015
thorax -11.1577 -0.587415 -0.750207
lowerneck -14.875 -5.673 -1.75804
upperneck 24.4101 -10.4572 10.3093
head 11.0455 -3.76402 2.52772
rclavicle -1.08835e-014 1.43125e-014
rhumerus -15.2117 41.0748 -87.707
rradius 106.246
rwrist 16.252
rhand 15.1532 -70.1294
rfingers 7.12502
rthumb 39.9959 -264.643
lclavicle -1.08835e-014 1.43125e-014
lhumerus -3.2193 -19.3277 78.3285
lradius 92.1527
lwrist 40.109
lhand -38.4736 -17.8969
lfingers 7.12502
lthumb -11.496 11.7679
rfemur -9.82218 17.7621 24.8953
rtibia 8.69237
rfoot -11.4541 -20.8468
rtoes -1.12203
lfemur 1.24936 -45.0281 -8.77554
ltibia -3.89235
lfoot -19.8934 53.3568
ltoes 13.1833
295
root -0.457862 17.6015 7.51153 9.16634 -0.782274 -9.46661
lowerback 9.39776 -0.284021 -0.652223
upperback -5.04982 -0.57868 -1.04008
thorax -10.7229 -0.277039 -0.645345
lowerneck -15.2318 -5.87572 -2.00507
upperneck 24.1335 -10.6523 10.3191
head 11.0407 -3.8713 2.53014
rclavicle 2.54444e-014 -3.33958e-014
rhumerus -13.183 39.9439 -88.8878
rradius 102.303
rwrist 19.8026
rhand 12.1915 -69.9925
rfingers 7.12502
rthumb 37.2018 -263.995
lclavicle 2.54444e-014 -3.33958e-014
lhumerus -2.664 -19.0439 78.7499
lradius 92.0211
lwrist 39.6727
lhand -38.5938 -18.289
lfingers 7.12502
lthumb -11.6119 11.3692
rfemur -10.15 18.0662 24.5996
rtibia 8.88604
rfoot -11.2094 -20.1154
rtoes -1.63833
lfemur 1.75411 -45.0769 -9.38274
ltibia -3.96341
lfoot -21.452 54.1147
ltoes 14.4995
296
root -0.449749 17.5997 7.50046 9.35901 -1.78739 -9.37307
lowerback 9.72468 0.249854 -0.513326
upperback -5.26104 0.135547 -1.21482
thorax -11.1504 0.0468811 -1.04988
lowerneck -15.2617 -6.1807 -2.1848
upperneck 24.128 -11.0683 10.4151
head 11.0937 -4.06391 2.52999
rclavicle -3.8763e-015 2.38542e-014
rhumerus -12.0118 37.8429 -90.9288
rradius 98.2652
rwrist 24.0297
rhand 10.292 -70.966
rfingers 7.12502
rthumb 35.4033 -262.573
lclavicle -3.8763e-015 2.38542e-014
lhumerus -2.78314 -19.4084 79.2577
lradius 91.9939
lwrist 39.1145
lhand -38.7022 -18.7168
lfingers 7.12502
lthumb -11.7165 10.9355
rfemur -10.5489 18.4267 24.3197
rtibia 9.02886
rfoot -10.9717 -19.4941
rtoes -1.89619
lfemur 1.96477 -45.0544 -9.7212
ltibia -3.9574
lfoot -23.1518 54.668
ltoes 16.0392
297
root -0.439475 17.5996 7.48949 9.61498 -2.67752 -9.26228
lowerback 9.36217 0.639803 -0.664113
upperback -5.04445 0.655191 -1.13734
thorax -10.6845 0.312458 -0.971094
lowerneck -15.4464 -6.33269 -2.35669
upperneck 23.6744 -11.1473 10.306
head 10.9674 -4.13908 2.49646
rclavicle -2.28602e-015 9.54166e-015
rhumerus -8.84711 36.1981 -91.6586
rradius 93.1743
rwrist 27.5013
rhand 8.26272 -70.5434
rfingers 7.12502
rthumb 33.4768 -262.558
lclavicle -2.28602e-015 9.54166e-015
lhumerus -2.23115 -19.1138 79.7207
lradius 91.9207
lwrist 38.6815
lhand -38.8954 -18.8979
lfingers 7.12502
lthumb -11.9028 10.7437
rfemur -10.9538 18.671 23.9969
rtibia 9.02888
rfoot -10.6645 -18.9135
rtoes -2.21335
lfemur 1.99822 -45.1214 -9.97286
ltibia -3.90568
lfoot -24.9853 55.1817
ltoes 17.6312
298
root -0.429441 17.6026 7.47682 9.88078 -3.43989 -9.21535
lowerback 9.3339 1.034 -0.572728
upperback -5.04638 1.20208 -1.11116
thorax -10.6622 0.570083 -1.09443
lowerneck -15.4094 -6.54074 -2.56496
upperneck 23.2718 -11.2988 10.1837
head 10.8241 -4.25818 2.46047
rclavicle 1.54058e-014 1.59028e-014
rhumerus -7.40108 32.625 -93.9243
rradius 88.6386
rwrist 31.5496
rhand 6.52387 -70.0392
rfingers 7.12502
rthumb 31.8224 -262.719
lclavicle 1.54058e-014 1.59028e-014
lhumerus -1.97843 -19.0665 80.3011
lradius 91.8679
lwrist 38.5119
lhand -39.1932 -18.8539
lfingers 7.12502
lthumb -12.1899 10.7709
rfemur -11.3408 18.8771 23.7576
rtibia 8.96727
rfoot -10.3261 -18.4569
rtoes -2.78352
lfemur 1.83432 -44.9354 -9.99947
ltibia -3.83055
lfoot -26.0996 55.4624
ltoes 18.5673
299
root -0.421531 17.6073 7.46391 10.1148 -4.08113 -9.2385
lowerback 9.40353 1.41179 -0.467055
upperback -5.07164 1.73302 -1.03086
thorax -10.7247 0.820797 -1.16783
lowerneck -15.4276 -6.75667 -2.65984
upperneck 22.9497 -11.458 9.8979
head 10.7042 -4.38364 2.34646
rclavicle -6.75868e-015 -1.90833e-014
rhumerus -4.82422 30.4756 -94.9943
rradius 83.5333
rwrist 30.8077
rhand 4.87117 -71.0762
rfingers 7.12502
rthumb 30.2471 -261.382
lclavicle -6.75868e-015 -1.90833e-014
lhumerus -1.72869 -19.0311 80.9582
lradius 91.7163
lwrist 38.4053
lhand -39.3297 -18.8695
lfingers 7.12502
lthumb -12.3216 10.7474
rfemur -11.6417 19.1599 23.6211
rtibia 8.84169
rfoot -10.0234 -18.1661
rtoes -3.27445
lfemur 1.67533 -44.7697 -9.92304
ltibia -3.80515
lfoot -26.8649 55.733
ltoes 19.1923
